<svg width="80" height="80" viewBox="0 0 80 80" fill="none" xmlns="http://www.w3.org/2000/svg">
<rect width="80" height="80" rx="4" fill="#FEF4E6"/>
<path d="M55 16.45H25L23.75 17.7V42.6188L25 43.8688H55L56.25 42.6188V17.7L55 16.45ZM53.75 18.95V30.6313L48.75 26.5375L47.1125 26.5875L43.9375 29.5125L40.5437 27.0125L39 27.0625L30.25 34.375L26.25 31.625V18.95H53.75ZM26.25 41.3688V34.675L29.5625 36.9875L31.075 36.9188L39.8438 29.625L43.2812 32.125L44.8688 32.0375L47.9938 29.1438L53.75 33.8563V41.3563L26.25 41.3688Z" fill="#FF6633"/>
<path d="M31.925 29.1C33.3057 29.1 34.425 27.9807 34.425 26.6C34.425 25.2193 33.3057 24.1 31.925 24.1C30.5443 24.1 29.425 25.2193 29.425 26.6C29.425 27.9807 30.5443 29.1 31.925 29.1Z" fill="#FF6633"/>
<path d="M18.4996 68V59.5449H20.2691V68H18.4996ZM22.39 68V61.5488H24.1009V62.5566H24.2064C24.4818 61.8301 25.1498 61.4082 25.9935 61.4082C26.8724 61.4082 27.5228 61.8535 27.7865 62.5977H27.892C28.1849 61.8828 28.9349 61.4082 29.8373 61.4082C31.1205 61.4082 31.9232 62.2402 31.9232 63.5703V68H30.2123V63.998C30.2123 63.2188 29.8607 62.8262 29.1459 62.8262C28.4545 62.8262 28.0091 63.3359 28.0091 64.0332V68H26.2982V63.9219C26.2982 63.2305 25.9056 62.8262 25.2377 62.8262C24.5697 62.8262 24.1009 63.3711 24.1009 64.1094V68H22.39ZM35.5792 68.0996C34.3487 68.0996 33.4757 67.3379 33.4757 66.166V66.1543C33.4757 64.9941 34.3722 64.3145 35.9777 64.2207L37.5362 64.127V63.5938C37.5362 63.0371 37.1554 62.7207 36.4523 62.7207C35.837 62.7207 35.4445 62.9375 35.3097 63.3184L35.298 63.3418H33.7159L33.7218 63.2891C33.8566 62.1582 34.923 61.4082 36.546 61.4082C38.257 61.4082 39.2237 62.2168 39.2237 63.5938V68H37.5362V67.1445H37.4308C37.1027 67.7422 36.423 68.0996 35.5792 68.0996ZM35.1456 66.0605C35.1456 66.5527 35.5616 66.8516 36.1534 66.8516C36.9445 66.8516 37.5362 66.3301 37.5362 65.6504V65.1758L36.2355 65.2578C35.503 65.3047 35.1456 65.5801 35.1456 66.0488V66.0605ZM43.9872 70.2676C42.2001 70.2676 41.163 69.5176 41.0223 68.4219V68.3926H42.7157L42.7216 68.416C42.8153 68.791 43.2606 69.0488 44.0223 69.0488C44.9364 69.0488 45.4696 68.6211 45.4696 67.8711V66.6699H45.3641C45.0067 67.3496 44.327 67.7188 43.4305 67.7188C41.8075 67.7188 40.8055 66.4648 40.8055 64.6309V64.6191C40.8055 62.7207 41.8075 61.4434 43.4598 61.4434C44.3446 61.4434 45.036 61.877 45.3817 62.6035H45.4637V61.5488H47.1747V67.8008C47.1747 69.3125 45.9384 70.2676 43.9872 70.2676ZM44.0106 66.4062C44.9364 66.4062 45.4872 65.6855 45.4872 64.625V64.6133C45.4872 63.5527 44.9305 62.832 44.0106 62.832C43.0907 62.832 42.5575 63.5527 42.5575 64.6133V64.625C42.5575 65.6855 43.0848 66.4062 44.0106 66.4062ZM51.9616 68.1348C49.9987 68.1348 48.8092 66.8516 48.8092 64.7832V64.7773C48.8092 62.7266 50.0104 61.4082 51.8912 61.4082C53.7721 61.4082 54.944 62.6973 54.944 64.6484V65.1816H50.5026C50.5202 66.2422 51.0885 66.8574 51.9967 66.8574C52.7467 66.8574 53.1627 66.459 53.2799 66.2129L53.2975 66.1777H54.8912L54.8795 66.2363C54.6803 67.0449 53.8483 68.1348 51.9616 68.1348ZM51.9205 62.6914C51.1764 62.6914 50.6256 63.1953 50.5202 64.1094H53.3034C53.1979 63.1719 52.6647 62.6914 51.9205 62.6914ZM59.1508 68.1348C57.3988 68.1348 56.4027 67.3496 56.2797 66.2422L56.2738 66.2188H57.9555L57.9672 66.2422C58.102 66.6406 58.4945 66.9277 59.1684 66.9277C59.8246 66.9277 60.2699 66.6465 60.2699 66.2188V66.207C60.2699 65.8613 60.0121 65.6445 59.3559 65.498L58.2777 65.2695C57.0473 65.0059 56.4379 64.4023 56.4379 63.4355V63.4297C56.4379 62.2168 57.516 61.4082 59.1273 61.4082C60.8207 61.4082 61.7582 62.252 61.8285 63.2891V63.3125H60.2406L60.2348 63.2832C60.141 62.9375 59.7602 62.6152 59.1215 62.6152C58.5297 62.6152 58.1078 62.8906 58.1078 63.3242V63.3301C58.1078 63.6758 58.348 63.875 59.016 64.0215L60.0883 64.25C61.3773 64.5254 61.9809 65.0645 61.9809 66.0195V66.0254C61.9809 67.3027 60.8031 68.1348 59.1508 68.1348Z" fill="#222222"/>
</svg>
