<svg width="80" height="80" viewBox="0 0 80 80" fill="none" xmlns="http://www.w3.org/2000/svg">
<rect width="80" height="80" rx="4" fill="#FEF4E6"/>
<g clip-path="url(#clip0_1_541)">
<path d="M37.8125 14.25L36.1875 16.75H27.5V39.25H34.75L34.3125 41.75H26.25L25 40.5V15.5L26.25 14.25H37.8125ZM45.6875 14.25H53.75L55 15.5V40.5L53.75 41.75H42.1875L43.8125 39.25H52.5V16.75H45.25L45.6875 14.25Z" fill="#F6821F"/>
<path d="M37.875 31.75H30.625L29.5625 29.8125L42.5625 9.8125L44.8125 10.75L42.125 24.25H49.375L50.4375 26.1875L37.4375 46.1875L35.1875 45.25L37.875 31.75Z" fill="#F6821F"/>
<path d="M29.3125 19.4375C29.7957 19.4375 30.1875 19.0457 30.1875 18.5625C30.1875 18.0793 29.7957 17.6875 29.3125 17.6875C28.8293 17.6875 28.4375 18.0793 28.4375 18.5625C28.4375 19.0457 28.8293 19.4375 29.3125 19.4375Z" fill="#F6821F"/>
<path d="M31.625 19.4375C32.1082 19.4375 32.5 19.0457 32.5 18.5625C32.5 18.0793 32.1082 17.6875 31.625 17.6875C31.1418 17.6875 30.75 18.0793 30.75 18.5625C30.75 19.0457 31.1418 19.4375 31.625 19.4375Z" fill="#F6821F"/>
<path d="M33.9375 19.4375C34.4207 19.4375 34.8125 19.0457 34.8125 18.5625C34.8125 18.0793 34.4207 17.6875 33.9375 17.6875C33.4543 17.6875 33.0625 18.0793 33.0625 18.5625C33.0625 19.0457 33.4543 19.4375 33.9375 19.4375Z" fill="#F6821F"/>
</g>
<path d="M22.1997 68V59.5449H25.686C27.4673 59.5449 28.6567 60.6934 28.6567 62.4336V62.4453C28.6567 64.1855 27.4673 65.334 25.686 65.334H23.9692V68H22.1997ZM25.2524 60.9453H23.9692V63.9512H25.2524C26.2661 63.9512 26.8638 63.4121 26.8638 62.4512V62.4395C26.8638 61.4785 26.2661 60.9453 25.2524 60.9453ZM31.8791 68.0996C30.6487 68.0996 29.7756 67.3379 29.7756 66.166V66.1543C29.7756 64.9941 30.6721 64.3145 32.2776 64.2207L33.8362 64.127V63.5938C33.8362 63.0371 33.4553 62.7207 32.7522 62.7207C32.137 62.7207 31.7444 62.9375 31.6096 63.3184L31.5979 63.3418H30.0159L30.0217 63.2891C30.1565 62.1582 31.2229 61.4082 32.8459 61.4082C34.5569 61.4082 35.5237 62.2168 35.5237 63.5938V68H33.8362V67.1445H33.7307C33.4026 67.7422 32.7229 68.0996 31.8791 68.0996ZM31.4455 66.0605C31.4455 66.5527 31.8616 66.8516 32.4534 66.8516C33.2444 66.8516 33.8362 66.3301 33.8362 65.6504V65.1758L32.5354 65.2578C31.803 65.3047 31.4455 65.5801 31.4455 66.0488V66.0605ZM40.2871 70.2676C38.5 70.2676 37.4629 69.5176 37.3223 68.4219V68.3926H39.0156L39.0215 68.416C39.1152 68.791 39.5605 69.0488 40.3223 69.0488C41.2363 69.0488 41.7695 68.6211 41.7695 67.8711V66.6699H41.6641C41.3066 67.3496 40.627 67.7188 39.7305 67.7188C38.1074 67.7188 37.1055 66.4648 37.1055 64.6309V64.6191C37.1055 62.7207 38.1074 61.4434 39.7598 61.4434C40.6445 61.4434 41.3359 61.877 41.6816 62.6035H41.7637V61.5488H43.4746V67.8008C43.4746 69.3125 42.2383 70.2676 40.2871 70.2676ZM40.3105 66.4062C41.2363 66.4062 41.7871 65.6855 41.7871 64.625V64.6133C41.7871 63.5527 41.2305 62.832 40.3105 62.832C39.3906 62.832 38.8574 63.5527 38.8574 64.6133V64.625C38.8574 65.6855 39.3848 66.4062 40.3105 66.4062ZM48.2615 68.1348C46.2986 68.1348 45.1091 66.8516 45.1091 64.7832V64.7773C45.1091 62.7266 46.3103 61.4082 48.1912 61.4082C50.072 61.4082 51.2439 62.6973 51.2439 64.6484V65.1816H46.8025C46.8201 66.2422 47.3884 66.8574 48.2966 66.8574C49.0466 66.8574 49.4627 66.459 49.5798 66.2129L49.5974 66.1777H51.1912L51.1795 66.2363C50.9802 67.0449 50.1482 68.1348 48.2615 68.1348ZM48.2205 62.6914C47.4763 62.6914 46.9255 63.1953 46.8201 64.1094H49.6033C49.4978 63.1719 48.9646 62.6914 48.2205 62.6914ZM55.4507 68.1348C53.6987 68.1348 52.7027 67.3496 52.5796 66.2422L52.5737 66.2188H54.2554L54.2671 66.2422C54.4019 66.6406 54.7945 66.9277 55.4683 66.9277C56.1245 66.9277 56.5698 66.6465 56.5698 66.2188V66.207C56.5698 65.8613 56.312 65.6445 55.6558 65.498L54.5777 65.2695C53.3472 65.0059 52.7378 64.4023 52.7378 63.4355V63.4297C52.7378 62.2168 53.8159 61.4082 55.4273 61.4082C57.1206 61.4082 58.0581 62.252 58.1284 63.2891V63.3125H56.5405L56.5347 63.2832C56.4409 62.9375 56.0601 62.6152 55.4214 62.6152C54.8296 62.6152 54.4077 62.8906 54.4077 63.3242V63.3301C54.4077 63.6758 54.648 63.875 55.3159 64.0215L56.3882 64.25C57.6773 64.5254 58.2808 65.0645 58.2808 66.0195V66.0254C58.2808 67.3027 57.103 68.1348 55.4507 68.1348Z" fill="#222222"/>
<defs>
<clipPath id="clip0_1_541">
<rect width="40" height="40" fill="white" transform="translate(20 9)"/>
</clipPath>
</defs>
</svg>
