<svg width="80" height="80" viewBox="0 0 80 80" fill="none" xmlns="http://www.w3.org/2000/svg">
<rect width="80" height="80" rx="4" fill="#FEF4E6"/>
<path fill-rule="evenodd" clip-rule="evenodd" d="M25.5175 14.9525L29.735 11.7425L30.525 11.5H49.535L50.3175 11.755L54.6575 14.9675L55.195 16.025V40.975L54.8325 41.88L51.6625 45.2375L50.7025 45.65H29.9175L29.0175 45.295L25.42 41.94L25 40.975V16.025L25.5175 14.9525ZM27.6275 31.6375L30.5625 34.8825H30.5975V37.5075H29.3975L27.6275 35.5375V40.39L30.4225 43.015H50.1225L52.5525 40.45V35.38L50.1425 37.5075H37.9V34.8825H49.1625L52.57 31.855V26.97L50.16 29.1025H37.9V26.4775H49.1625L52.57 23.4575V18.9125L50.16 21.0525H29.425L27.625 19.215V23.2325L30.5625 26.4775H30.5975V29.1025H29.3975L27.6275 27.1325V31.6375ZM49.1025 14.1275H30.97L28.2975 16.1675L30.53 18.4525H49.165L51.79 16.115L49.1075 14.1275H49.1025Z" fill="#FF6633"/>
<path d="M34.25 30.1299C34.7725 30.1299 35.2735 30.3375 35.643 30.7069C36.0124 31.0763 36.22 31.5774 36.22 32.0999C36.22 32.6224 36.0124 33.1235 35.643 33.4929C35.2735 33.8623 34.7725 34.0699 34.25 34.0699C33.7275 34.0699 33.2264 33.8623 32.857 33.4929C32.4875 33.1235 32.28 32.6224 32.28 32.0999C32.28 31.5774 32.4875 31.0763 32.857 30.7069C33.2264 30.3375 33.7275 30.1299 34.25 30.1299ZM31.925 39.7749L34.25 37.4524L36.57 39.7749L34.2475 42.0949L31.925 39.7749ZM34.25 22.1499L36.24 23.2999V25.5999L34.2475 26.7499L32.2575 25.5999V23.2999L34.25 22.1499Z" fill="#FF6633"/>
<path d="M13.6923 68L10.874 59.5449H12.8603L14.7295 66.0312H14.8349L16.6982 59.5449H18.6904L15.872 68H13.6923ZM22.3405 68.1348C20.3777 68.1348 19.1882 66.8516 19.1882 64.7832V64.7773C19.1882 62.7266 20.3894 61.4082 22.2702 61.4082C24.1511 61.4082 25.323 62.6973 25.323 64.6484V65.1816H20.8816C20.8991 66.2422 21.4675 66.8574 22.3757 66.8574C23.1257 66.8574 23.5417 66.459 23.6589 66.2129L23.6765 66.1777H25.2702L25.2585 66.2363C25.0593 67.0449 24.2273 68.1348 22.3405 68.1348ZM22.2995 62.6914C21.5554 62.6914 21.0046 63.1953 20.8991 64.1094H23.6823C23.5769 63.1719 23.0437 62.6914 22.2995 62.6914ZM29.8052 68.1348C27.7895 68.1348 26.647 66.9102 26.647 64.7656V64.7539C26.647 62.6328 27.7837 61.4082 29.8052 61.4082C31.5161 61.4082 32.5298 62.3398 32.6821 63.7812V63.7988H31.0884L31.0825 63.7871C30.9712 63.1602 30.5434 62.75 29.811 62.75C28.8911 62.75 28.3872 63.4648 28.3872 64.7539V64.7656C28.3872 66.0723 28.897 66.793 29.811 66.793C30.5141 66.793 30.9302 66.459 31.0825 65.8145L31.0942 65.791H32.6763L32.6704 65.8262C32.4946 67.2324 31.4868 68.1348 29.8052 68.1348ZM36.9944 68.0234C35.4241 68.0234 34.7913 67.5137 34.7913 66.2598V62.8379H33.7952V61.5488H34.7913V60.0078H36.5198V61.5488H37.8498V62.8379H36.5198V65.8672C36.5198 66.4473 36.7659 66.7051 37.3459 66.7051C37.5686 66.7051 37.6858 66.6934 37.8498 66.6758V67.9473C37.6389 67.9883 37.3225 68.0234 36.9944 68.0234ZM42.332 68.1348C40.3457 68.1348 39.1504 66.875 39.1504 64.7773V64.7656C39.1504 62.6855 40.3633 61.4082 42.332 61.4082C44.3008 61.4082 45.5137 62.6797 45.5137 64.7656V64.7773C45.5137 66.8809 44.3184 68.1348 42.332 68.1348ZM42.332 66.793C43.2402 66.793 43.7617 66.0488 43.7617 64.7773V64.7656C43.7617 63.5059 43.2344 62.75 42.332 62.75C41.4238 62.75 40.9023 63.5059 40.9023 64.7656V64.7773C40.9023 66.0488 41.418 66.793 42.332 66.793ZM47.1482 68V61.5488H48.8591V62.5508H48.9646C49.1697 61.8535 49.7556 61.4434 50.5935 61.4434C50.822 61.4434 51.0623 61.4785 51.2322 61.5254V63.0195C50.9744 62.9609 50.7107 62.9199 50.447 62.9199C49.4744 62.9199 48.8591 63.4766 48.8591 64.3906V68H47.1482ZM53.4878 60.5586C52.9605 60.5586 52.521 60.1367 52.521 59.6094C52.521 59.0762 52.9605 58.6543 53.4878 58.6543C54.0152 58.6543 54.4487 59.0762 54.4487 59.6094C54.4487 60.1367 54.0152 60.5586 53.4878 60.5586ZM52.6265 68V61.5488H54.3374V68H52.6265ZM56.1536 68V67.0156L59.4407 62.9434V62.8379H56.2005V61.5488H61.4622V62.6387L58.3626 66.6055V66.7109H61.5384V68H56.1536ZM66.0205 68.1348C64.0577 68.1348 62.8682 66.8516 62.8682 64.7832V64.7773C62.8682 62.7266 64.0694 61.4082 65.9502 61.4082C67.8311 61.4082 69.003 62.6973 69.003 64.6484V65.1816H64.5616C64.5791 66.2422 65.1475 66.8574 66.0557 66.8574C66.8057 66.8574 67.2217 66.459 67.3389 66.2129L67.3565 66.1777H68.9502L68.9385 66.2363C68.7393 67.0449 67.9073 68.1348 66.0205 68.1348ZM65.9795 62.6914C65.2354 62.6914 64.6846 63.1953 64.5791 64.1094H67.3623C67.2569 63.1719 66.7237 62.6914 65.9795 62.6914Z" fill="#222222"/>
</svg>
