<svg width="80" height="80" viewBox="0 0 80 80" fill="none" xmlns="http://www.w3.org/2000/svg">
<rect width="80" height="80" rx="4" fill="#FEF4E6"/>
<path d="M52.9521 24.8655C51.1594 24.8655 49.598 26.0893 49.0776 27.7793H40.8082V21.5438H43.4683L46.0706 20.0869C46.7067 20.5531 47.5162 20.7862 48.3258 20.7862C50.5233 20.7862 52.3738 18.9797 52.3738 16.7069C52.3738 14.4342 50.5811 12.6276 48.3258 12.6276C46.0705 12.6276 44.2779 14.4342 44.2779 16.7069C44.2779 17.2314 44.3935 17.7559 44.567 18.2221L42.89 19.2128H40.8661V15.0169V12.6859H40.8082C40.0565 12.1032 39.1312 11.7535 38.206 11.5787C38.206 11.5787 38.1481 11.5787 38.0903 11.5787C36.9916 11.4038 35.835 11.5204 34.7363 11.9283C34.505 11.9866 34.2737 12.1032 34.0424 12.2197C34.0424 12.2197 34.0424 12.2197 33.9845 12.2197C33.9267 12.278 33.8689 12.278 33.8111 12.3363C32.828 12.919 32.0762 13.7349 31.498 14.6673C31.498 14.7255 31.4401 14.7838 31.4401 14.7838C31.3823 14.9004 31.3245 15.0169 31.2666 15.1335C31.2666 15.1918 31.2088 15.1918 31.2088 15.25V15.3083C31.0932 15.3083 30.9775 15.3083 30.8618 15.3083C29.1848 15.3083 27.5657 16.0076 26.4091 17.1731C25.1947 18.3386 24.5586 19.9703 24.5586 21.6603C24.5586 22.0683 24.6164 22.4762 24.6743 22.8841C23.9225 23.4086 23.2864 24.1079 22.8238 24.9238C22.3612 25.7396 22.1299 26.6137 22.0142 27.5462C21.9564 28.4786 22.072 29.411 22.419 30.2851C22.766 31.1592 23.2864 31.9751 23.9225 32.6161C23.4599 33.6651 23.2286 34.7723 23.2864 35.8795C23.2864 36.9868 23.5755 38.094 24.096 39.143C24.6164 40.1919 25.3104 41.0078 26.1778 41.7071C26.9296 42.2899 27.7391 42.6978 28.6644 42.9892V42.9309C29.5318 43.2223 30.4571 43.3388 31.4401 43.2805H31.498C31.498 43.3388 31.5558 43.3388 31.5558 43.3388C32.0762 44.3295 32.8858 45.0871 33.8689 45.6698C33.9267 45.7281 33.9845 45.7281 34.0424 45.7864C34.0424 45.7864 34.0424 45.7864 34.1002 45.7864C34.3315 45.9029 34.5628 46.0195 34.7941 46.0778C35.6037 46.4274 36.529 46.544 37.3964 46.4857C37.6277 46.4857 37.859 46.4274 38.1481 46.4274H38.206C39.1312 46.2526 39.9986 45.9029 40.8082 45.3202V38.3854H42.8322L44.6249 39.3761C44.4514 39.8423 44.3357 40.3668 44.3357 40.8912C44.3357 43.1057 46.1284 44.9705 48.3837 44.9705C50.6389 44.9705 52.4316 43.164 52.4316 40.8912C52.4316 38.6185 50.6389 36.812 48.3837 36.812C47.5162 36.812 46.7645 37.1033 46.1284 37.5113L43.4683 36.0544H40.8082V31.0427V30.1103H49.0776C49.598 31.8003 51.1016 33.0241 52.9521 33.0241C55.1495 33.0241 57 31.2175 57 28.9448C57 26.672 55.2073 24.8655 52.9521 24.8655ZM48.3837 15.0169C49.3089 15.0169 50.1185 15.7745 50.1185 16.7652C50.1185 17.7559 49.3667 18.5135 48.3837 18.5135C47.4006 18.5135 46.6488 17.7559 46.6488 16.7652C46.6488 15.7745 47.4584 15.0169 48.3837 15.0169ZM48.3837 39.143C49.3089 39.143 50.1185 39.9006 50.1185 40.8912C50.1185 41.8819 49.3667 42.6395 48.3837 42.6395C47.4006 42.6395 46.6488 41.8819 46.6488 40.8912C46.6488 39.9006 47.4584 39.143 48.3837 39.143ZM38.4951 43.6885C38.2638 43.805 38.0903 43.8633 37.859 43.8633C37.7434 43.8633 37.6277 43.9216 37.5699 43.9216H37.512H37.4542C36.9338 43.9798 36.4711 43.9216 35.9507 43.7467C35.3724 43.5719 34.852 43.2223 34.3893 42.7561C33.9845 42.2899 33.6376 41.7654 33.4641 41.1826C33.4063 40.8912 33.3484 40.5999 33.2906 40.3085C33.2906 40.1919 33.2906 40.0171 33.2906 39.9006C33.2906 39.6092 33.3484 39.3178 33.4641 39.0264C33.5219 38.9099 33.5219 38.7933 33.5798 38.6185C33.6376 38.4437 33.7532 38.2688 33.8689 38.094C33.8689 38.0357 33.9267 38.0357 33.9267 37.9775C33.9845 37.9192 33.9845 37.8609 34.0424 37.8026C34.1002 37.7444 34.1002 37.6861 34.158 37.6278C34.158 37.6278 34.158 37.5695 34.2159 37.5695C34.3315 37.453 34.4472 37.3364 34.5628 37.2199L33.0015 35.1802C32.2497 35.8213 31.6714 36.5789 31.3245 37.453C31.2088 37.6861 31.0932 37.9775 31.0353 38.2106V38.2688C30.9775 38.3854 30.9775 38.5019 30.9775 38.6185C30.804 39.2595 30.7462 39.9588 30.804 40.5999C30.6305 40.5999 30.3992 40.5999 30.2257 40.5416C28.9535 40.3085 27.797 39.6675 27.0452 38.6768C26.2356 37.6861 25.8887 36.404 26.0043 35.122C26.0621 34.6558 26.1778 34.1896 26.3513 33.7234C26.4091 33.6068 26.4669 33.4903 26.5248 33.3737C26.5826 33.2572 26.6404 33.1406 26.6982 33.0823C26.6982 33.0823 26.6982 33.0241 26.7561 33.0241C26.9874 32.6161 27.2765 32.2665 27.6235 31.9168C28.5487 31.0427 29.8209 30.5765 31.0932 30.5765C31.498 30.5765 31.9027 30.6348 32.3075 30.7513V28.1289C31.9027 28.0706 31.498 28.0124 31.0932 28.0124C30.0523 28.0124 29.0692 28.2455 28.0861 28.6534C27.6813 28.8282 27.3344 29.003 26.9874 29.2361C26.6404 29.4692 26.3513 29.7023 26.0043 29.9937C25.8308 30.1103 25.7152 30.2851 25.5417 30.4599C25.1947 29.9937 24.9634 29.5275 24.7899 28.9448C24.6743 28.362 24.6743 27.7793 24.7899 27.2548C24.9056 26.672 25.1369 26.1475 25.5417 25.7396C25.8887 25.2734 26.3513 24.9238 26.8717 24.6907L27.9126 24.1662L27.5078 23.0589C27.2765 22.4762 27.2187 21.8352 27.2765 21.2524C27.3344 20.6696 27.5657 20.0286 27.9126 19.5624C28.2596 19.0379 28.7222 18.63 29.3005 18.3386C29.8209 18.0473 30.4571 17.8724 31.0353 17.9307C31.3245 17.9307 31.6136 17.989 31.9027 18.0473C32.481 18.1638 32.9436 18.4552 33.4063 18.8048C33.8689 19.1545 34.2159 19.6207 34.4472 20.1452L36.8181 19.271C36.2977 18.1055 35.4881 17.1148 34.3893 16.4155C34.158 16.299 33.9845 16.1824 33.8689 16.0659C34.1002 15.658 34.4472 15.25 34.7941 14.9587C35.2568 14.5507 35.835 14.3176 36.4711 14.2011C36.9916 14.0845 37.4542 14.1428 37.9747 14.2011C38.206 14.2593 38.3795 14.3176 38.6108 14.3759V15.1335V31.101V43.6885H38.4951ZM52.9521 30.693C52.0268 30.693 51.2172 29.9355 51.2172 28.9448C51.2172 28.0124 51.969 27.1965 52.9521 27.1965C53.9351 27.1965 54.6869 27.9541 54.6869 28.9448C54.6869 29.8772 53.9351 30.693 52.9521 30.693Z" fill="#F6821F"/>
<path d="M5.37508 68L8.31062 59.5449H10.3907L13.3321 68H11.4688L10.8419 65.9492H7.85945L7.2325 68H5.37508ZM9.30086 61.2324L8.26375 64.625H10.4376L9.40633 61.2324H9.30086ZM15.0077 68V59.5449H16.7772V68H15.0077ZM26.0814 68.2168C23.5677 68.2168 22.0267 66.5234 22.0267 63.7695V63.7578C22.0267 61.0449 23.5795 59.3281 26.0404 59.3281C28.0384 59.3281 29.4974 60.4766 29.7494 62.1641L29.7611 62.2227H28.0033L27.9916 62.1641C27.7513 61.3262 27.0306 60.8281 26.0404 60.8281C24.6752 60.8281 23.8314 61.9414 23.8314 63.7402V63.752C23.8314 65.5859 24.7162 66.7168 26.1107 66.7168C27.2709 66.7168 28.0677 66.0078 28.1029 64.9414L28.1087 64.7832H26.2806V63.4941H29.8314V64.5664C29.8314 66.8105 28.39 68.2168 26.0814 68.2168ZM33.2999 68.0996C32.0695 68.0996 31.1964 67.3379 31.1964 66.166V66.1543C31.1964 64.9941 32.0929 64.3145 33.6984 64.2207L35.257 64.127V63.5938C35.257 63.0371 34.8761 62.7207 34.173 62.7207C33.5577 62.7207 33.1652 62.9375 33.0304 63.3184L33.0187 63.3418H31.4366L31.4425 63.2891C31.5773 62.1582 32.6437 61.4082 34.2667 61.4082C35.9777 61.4082 36.9445 62.2168 36.9445 63.5938V68H35.257V67.1445H35.1515C34.8234 67.7422 34.1437 68.0996 33.2999 68.0996ZM32.8663 66.0605C32.8663 66.5527 33.2823 66.8516 33.8741 66.8516C34.6652 66.8516 35.257 66.3301 35.257 65.6504V65.1758L33.9562 65.2578C33.2237 65.3047 32.8663 65.5801 32.8663 66.0488V66.0605ZM41.538 68.0234C39.9677 68.0234 39.3348 67.5137 39.3348 66.2598V62.8379H38.3387V61.5488H39.3348V60.0078H41.0634V61.5488H42.3934V62.8379H41.0634V65.8672C41.0634 66.4473 41.3095 66.7051 41.8895 66.7051C42.1122 66.7051 42.2294 66.6934 42.3934 66.6758V67.9473C42.1825 67.9883 41.8661 68.0234 41.538 68.0234ZM46.8463 68.1348C44.8834 68.1348 43.694 66.8516 43.694 64.7832V64.7773C43.694 62.7266 44.8952 61.4082 46.776 61.4082C48.6569 61.4082 49.8287 62.6973 49.8287 64.6484V65.1816H45.3873C45.4049 66.2422 45.9733 66.8574 46.8815 66.8574C47.6315 66.8574 48.0475 66.459 48.1647 66.2129L48.1823 66.1777H49.776L49.7643 66.2363C49.5651 67.0449 48.733 68.1348 46.8463 68.1348ZM46.8053 62.6914C46.0612 62.6914 45.5104 63.1953 45.4049 64.1094H48.1881C48.0827 63.1719 47.5494 62.6914 46.8053 62.6914ZM52.5766 68L50.8539 61.5488H52.5824L53.5434 66.2188H53.6488L54.7797 61.5488H56.4086L57.5453 66.2188H57.6508L58.6117 61.5488H60.3051L58.5883 68H56.7719L55.6176 63.5H55.5121L54.3695 68H52.5766ZM63.3459 68.0996C62.1154 68.0996 61.2423 67.3379 61.2423 66.166V66.1543C61.2423 64.9941 62.1388 64.3145 63.7443 64.2207L65.3029 64.127V63.5938C65.3029 63.0371 64.922 62.7207 64.2189 62.7207C63.6037 62.7207 63.2111 62.9375 63.0763 63.3184L63.0646 63.3418H61.4826L61.4884 63.2891C61.6232 62.1582 62.6896 61.4082 64.3127 61.4082C66.0236 61.4082 66.9904 62.2168 66.9904 63.5938V68H65.3029V67.1445H65.1974C64.8693 67.7422 64.1896 68.0996 63.3459 68.0996ZM62.9123 66.0605C62.9123 66.5527 63.3283 66.8516 63.9201 66.8516C64.7111 66.8516 65.3029 66.3301 65.3029 65.6504V65.1758L64.0021 65.2578C63.2697 65.3047 62.9123 65.5801 62.9123 66.0488V66.0605ZM69.498 70.2734C69.2987 70.2734 69.082 70.2676 68.8827 70.2559V68.9668C68.9999 68.9785 69.1698 68.9844 69.328 68.9844C69.9374 68.9844 70.289 68.75 70.412 68.2461L70.4706 68L68.203 61.5488H70.0839L71.4374 66.4355H71.5546L72.9081 61.5488H74.7128L72.5155 67.9941C71.9413 69.6992 71.0917 70.2734 69.498 70.2734Z" fill="#222222"/>
</svg>
