<svg width="80" height="80" viewBox="0 0 80 80" fill="none" xmlns="http://www.w3.org/2000/svg">
<rect width="80" height="80" rx="4" fill="#FEF4E6"/>
<path d="M46.8 12.75H43.1623V20.7442L46.8 20.7561V12.75Z" fill="#FF6633"/>
<path d="M38.4002 17.3683L42.1908 21.1589L39.6101 23.7228L35.8279 19.9405L38.4002 17.3683Z" fill="#FF6633"/>
<path d="M31.2123 24.7H39.2174L39.2055 28.3377H31.2123V24.7Z" fill="#FF6633"/>
<path d="M35.8316 33.0984L39.6202 29.3097L42.1841 31.8904L38.4038 35.6706L35.8316 33.0984Z" fill="#FF6633"/>
<path d="M43.1623 40.2877V32.2832L46.8 32.295V40.2877H43.1623Z" fill="#FF6633"/>
<path d="M51.5616 35.674L47.7695 31.8819L50.3502 29.318L54.1339 33.1018L51.5616 35.674Z" fill="#FF6633"/>
<path d="M58.75 28.3377H50.7444L50.7563 24.7H58.75V28.3377Z" fill="#FF6633"/>
<path d="M54.1338 19.9404L50.3432 23.731L47.7793 21.1504L51.5615 17.3682L54.1338 19.9404Z" fill="#FF6633"/>
<path d="M24.9991 13.5714V15.6248H22.9457V18.9103H24.9991V20.9637H28.2846V18.9103H30.338V15.6248H28.2846V13.5714H24.9991Z" fill="#FF6633"/>
<path d="M24.9991 45.6786V41.9279H21.25V38.6424H24.9991V34.8949H28.2846V38.6424H32.0337V41.9279H28.2846V45.6786H24.9991Z" fill="#FF6633"/>
<path d="M8.82039 68L6.58211 59.5449H8.42195L9.74031 65.5859H9.83406L11.3751 59.5449H12.8692L14.4395 65.5859H14.5333L15.8399 59.5449H17.668L15.4239 68H13.7657L12.1661 62.3047H12.0723L10.4903 68H8.82039ZM21.4412 68.1348C19.4549 68.1348 18.2596 66.875 18.2596 64.7773V64.7656C18.2596 62.6855 19.4725 61.4082 21.4412 61.4082C23.41 61.4082 24.6229 62.6797 24.6229 64.7656V64.7773C24.6229 66.8809 23.4276 68.1348 21.4412 68.1348ZM21.4412 66.793C22.3495 66.793 22.8709 66.0488 22.8709 64.7773V64.7656C22.8709 63.5059 22.3436 62.75 21.4412 62.75C20.533 62.75 20.0116 63.5059 20.0116 64.7656V64.7773C20.0116 66.0488 20.5272 66.793 21.4412 66.793ZM26.2574 68V61.5488H27.9684V62.5508H28.0738C28.2789 61.8535 28.8648 61.4434 29.7027 61.4434C29.9312 61.4434 30.1715 61.4785 30.3414 61.5254V63.0195C30.0836 62.9609 29.8199 62.9199 29.5562 62.9199C28.5836 62.9199 27.9684 63.4766 27.9684 64.3906V68H26.2574ZM31.7826 68V59.082H33.4935V64.0977H33.599L35.7552 61.5488H37.6947L35.2162 64.2852L37.8646 68H35.8431L33.9623 65.3398L33.4935 65.8379V68H31.7826ZM41.632 68.1348C39.6691 68.1348 38.4796 66.8516 38.4796 64.7832V64.7773C38.4796 62.7266 39.6808 61.4082 41.5616 61.4082C43.4425 61.4082 44.6144 62.6973 44.6144 64.6484V65.1816H40.173C40.1905 66.2422 40.7589 66.8574 41.6671 66.8574C42.4171 66.8574 42.8331 66.459 42.9503 66.2129L42.9679 66.1777H44.5616L44.5499 66.2363C44.3507 67.0449 43.5187 68.1348 41.632 68.1348ZM41.5909 62.6914C40.8468 62.6914 40.296 63.1953 40.1905 64.1094H42.9737C42.8683 63.1719 42.3351 62.6914 41.5909 62.6914ZM46.2548 68V61.5488H47.9657V62.5508H48.0712C48.2762 61.8535 48.8622 61.4434 49.7001 61.4434C49.9286 61.4434 50.1688 61.4785 50.3387 61.5254V63.0195C50.0809 62.9609 49.8173 62.9199 49.5536 62.9199C48.5809 62.9199 47.9657 63.4766 47.9657 64.3906V68H46.2548ZM54.1354 68.1348C52.3834 68.1348 51.3873 67.3496 51.2643 66.2422L51.2584 66.2188H52.9401L52.9518 66.2422C53.0866 66.6406 53.4791 66.9277 54.153 66.9277C54.8092 66.9277 55.2545 66.6465 55.2545 66.2188V66.207C55.2545 65.8613 54.9967 65.6445 54.3405 65.498L53.2623 65.2695C52.0319 65.0059 51.4225 64.4023 51.4225 63.4355V63.4297C51.4225 62.2168 52.5006 61.4082 54.1119 61.4082C55.8053 61.4082 56.7428 62.252 56.8131 63.2891V63.3125H55.2252L55.2194 63.2832C55.1256 62.9375 54.7448 62.6152 54.1061 62.6152C53.5143 62.6152 53.0924 62.8906 53.0924 63.3242V63.3301C53.0924 63.6758 53.3327 63.875 54.0006 64.0215L55.0729 64.25C56.3619 64.5254 56.9655 65.0645 56.9655 66.0195V66.0254C56.9655 67.3027 55.7877 68.1348 54.1354 68.1348ZM61.506 68L64.4416 59.5449H66.5216L69.463 68H67.5998L66.9728 65.9492H63.9904L63.3634 68H61.506ZM65.4318 61.2324L64.3947 64.625H66.5685L65.5373 61.2324H65.4318ZM71.1386 68V59.5449H72.9081V68H71.1386Z" fill="#222222"/>
</svg>
